<svg width="31" height="30" viewBox="0 0 31 30" fill="none" xmlns="http://www.w3.org/2000/svg">
<path d="M4.96757 23.3111C6.96424 21.3144 7.16391 20.8152 8.41183 22.0632C9.65975 23.3111 9.16058 23.4608 7.16391 25.5074C5.66641 27.0049 3.76957 26.7054 3.76957 26.7054C3.76957 26.7054 3.47007 24.8086 4.96757 23.3111Z" fill="#FF9D27"/>
<path d="M8.76124 25.3577C9.55991 23.2612 9.80949 23.0116 8.66141 22.3627C7.51332 21.7138 7.51332 22.163 6.76457 24.2595C6.16557 25.8069 6.8644 27.2046 6.8644 27.2046C6.8644 27.2046 8.21216 26.955 8.76124 25.3577Z" fill="#FF9D27"/>
<path d="M7.613 23.411C8.06225 22.2629 8.06225 22.0133 8.66125 22.3627C9.31017 22.7121 9.16042 22.8619 8.71117 24.01C8.41167 24.8585 7.66291 25.0582 7.66291 25.0582C7.66291 25.0582 7.3135 24.3095 7.613 23.411Z" fill="#FDF516"/>
<path d="M8.06215 21.8137C7.41323 20.6657 7.16364 20.9152 5.06714 21.7139C3.51972 22.3129 3.22021 23.6107 3.22021 23.6107C3.22021 23.6107 4.61789 24.3096 6.16531 23.7106C8.26181 22.9119 8.71106 22.9119 8.06215 21.8137Z" fill="#FF9D27"/>
<path d="M7.0142 22.8618C8.16228 22.4126 8.41187 22.4126 8.06245 21.8136C7.71303 21.1647 7.56328 21.3144 6.4152 21.7637C5.56661 22.0632 5.36694 22.8119 5.36694 22.8119C5.36694 22.8119 6.16561 23.1613 7.0142 22.8618Z" fill="#FDF516"/>
<path d="M6.46504 22.762C7.56321 21.6639 7.66304 21.3644 8.36187 22.0632C9.06071 22.762 8.76121 22.8619 7.66304 23.96C6.81445 24.8086 5.7662 24.6089 5.7662 24.6089C5.7662 24.6089 5.66637 23.6106 6.46504 22.762Z" fill="#FDF516"/>
<path d="M8.76118 17.97C5.66633 12.7787 0.524902 14.9251 0.524902 14.9251C0.524902 14.9251 7.86267 7.58735 12.8044 12.5291L8.76118 17.97Z" fill="#3BAACF"/>
<path d="M11.1572 14.1265L12.7545 12.5291C7.86267 7.58735 0.524902 14.9251 0.524902 14.9251C0.524902 14.9251 6.96417 10.3328 11.1572 14.1265Z" fill="#428BC1"/>
<path d="M12.5049 21.7139C17.6962 24.8088 15.5498 29.9502 15.5498 29.9502C15.5498 29.9502 22.8876 22.6124 17.9458 17.6707L12.5049 21.7139Z" fill="#3BAACF"/>
<path d="M16.3485 19.3178L17.9458 17.7205C22.8876 22.6622 15.5498 30 15.5498 30C15.5498 30 20.1422 23.5108 16.3485 19.3178Z" fill="#428BC1"/>
<path d="M23.8861 14.426C18.0459 20.2163 11.6066 23.3611 9.36034 21.1148C7.11409 18.8686 10.2588 12.4293 16.0492 6.58905C22.8379 -0.199632 30.3753 0.0998694 30.3753 0.0998694C30.3753 0.0998694 30.6249 7.63731 23.8861 14.426Z" fill="#C5D0D8"/>
<path d="M22.3885 12.7787C16.5981 18.569 10.8078 22.3627 9.46002 21.015C8.11226 19.6672 11.9059 13.8769 17.6963 8.08652C24.485 1.29784 30.475 0 30.475 0C30.475 0 29.1772 5.99002 22.3885 12.7787Z" fill="#DAE3EA"/>
<path d="M11.6564 22.712C11.4068 22.9616 11.0075 22.9616 10.7579 22.712L7.76287 19.717C7.51329 19.4675 7.51329 19.0182 7.76287 18.7686L8.66137 17.8701L12.5549 21.7636L11.6564 22.712Z" fill="#C94747"/>
<path d="M10.8077 21.8136C10.5581 22.0632 10.2586 22.163 10.1088 22.0133L8.41167 20.3161C8.26192 20.1663 8.36175 19.8668 8.61134 19.6173L9.50984 18.7188L11.7062 20.9151L10.8077 21.8136Z" fill="#F15744"/>
<path d="M9.95929 23.0615C9.80954 23.2113 9.46012 23.2113 9.31037 23.0615L7.36361 21.1148C7.21386 20.965 7.26378 20.6655 7.41353 20.5157L8.01253 19.9167L10.5583 22.4625L9.95929 23.0615Z" fill="#3E4347"/>
<path d="M9.55979 22.6623C9.41004 22.812 9.11054 22.8619 9.01071 22.7621L7.66295 21.4143C7.56312 21.3145 7.61304 21.0649 7.8127 20.9152L8.41171 20.3162L10.1588 22.0633L9.55979 22.6623Z" fill="#62727A"/>
<path d="M30.3751 0.0997044C30.3751 0.0997044 27.6796 -0.000129104 24.0356 1.39754L29.0772 6.43914C30.4749 2.79521 30.3751 0.0997044 30.3751 0.0997044Z" fill="#C94747"/>
<path d="M30.3751 0.0998535C30.3751 0.0998535 28.2287 0.549105 24.9841 2.39603L28.079 5.49087C29.9259 2.24628 30.3751 0.0998535 30.3751 0.0998535Z" fill="#F15744"/>
<path d="M21.2405 11.7304C22.6189 11.7304 23.7363 10.613 23.7363 9.23461C23.7363 7.8562 22.6189 6.73877 21.2405 6.73877C19.8621 6.73877 18.7446 7.8562 18.7446 9.23461C18.7446 10.613 19.8621 11.7304 21.2405 11.7304Z" fill="#EDF4F9"/>
<path d="M21.2403 10.8819C22.15 10.8819 22.8875 10.1444 22.8875 9.23466C22.8875 8.3249 22.15 7.5874 21.2403 7.5874C20.3305 7.5874 19.593 8.3249 19.593 9.23466C19.593 10.1444 20.3305 10.8819 21.2403 10.8819Z" fill="#3BAACF"/>
<path d="M16.2488 16.7221C17.6272 16.7221 18.7446 15.6047 18.7446 14.2263C18.7446 12.8479 17.6272 11.7305 16.2488 11.7305C14.8704 11.7305 13.7529 12.8479 13.7529 14.2263C13.7529 15.6047 14.8704 16.7221 16.2488 16.7221Z" fill="#EDF4F9"/>
<path d="M16.2488 15.8736C17.1586 15.8736 17.8961 15.1361 17.8961 14.2264C17.8961 13.3166 17.1586 12.5791 16.2488 12.5791C15.3391 12.5791 14.6016 13.3166 14.6016 14.2264C14.6016 15.1361 15.3391 15.8736 16.2488 15.8736Z" fill="#3BAACF"/>
<path d="M23.9359 2.44593C23.7862 2.59568 23.4867 2.59568 23.3369 2.44593C23.1872 2.29618 23.1872 1.99668 23.3369 1.84693C23.4867 1.69718 23.7862 1.69718 23.9359 1.84693C24.0857 1.99668 24.0857 2.29618 23.9359 2.44593Z" fill="white"/>
<path d="M24.7846 3.69393C25.0051 3.69393 25.1839 3.51514 25.1839 3.2946C25.1839 3.07405 25.0051 2.89526 24.7846 2.89526C24.564 2.89526 24.3853 3.07405 24.3853 3.2946C24.3853 3.51514 24.564 3.69393 24.7846 3.69393Z" fill="white"/>
<path d="M25.9826 4.89169C26.2031 4.89169 26.3819 4.7129 26.3819 4.49235C26.3819 4.27181 26.2031 4.09302 25.9826 4.09302C25.762 4.09302 25.5833 4.27181 25.5833 4.49235C25.5833 4.7129 25.762 4.89169 25.9826 4.89169Z" fill="white"/>
<path d="M27.1308 6.08993C27.3513 6.08993 27.5301 5.91114 27.5301 5.69059C27.5301 5.47005 27.3513 5.29126 27.1308 5.29126C26.9102 5.29126 26.7314 5.47005 26.7314 5.69059C26.7314 5.91114 26.9102 6.08993 27.1308 6.08993Z" fill="white"/>
<path d="M28.3285 7.23788C28.5491 7.23788 28.7279 7.05909 28.7279 6.83854C28.7279 6.618 28.5491 6.43921 28.3285 6.43921C28.108 6.43921 27.9292 6.618 27.9292 6.83854C27.9292 7.05909 28.108 7.23788 28.3285 7.23788Z" fill="white"/>
</svg>
